# xmcd
# Copyright (C) 1995-1998 Ti Kan
#
# Track frame offsets:
#       150
#       17342
#       33553
#       54259
#       77115
#       101380
#
# Disc length: 1546 seconds
#
# Revision: 0
# Processed by: cddbd v1.5.2PL0 Copyright (c) Steve Scherf et al.
# Submitted via: CD-Import v1.0
#
DISCID=38060806
DTITLE=Grasburg - Six Songs And One Idea
DYEAR=07
DGENRE=
TTITLE0=Daisy Chain
TTITLE1=Küssnacht
TTITLE2=Because Of You
TTITLE3=Bones Of Love
TTITLE4=Cradled
TTITLE5=Breathe
EXTD=
EXTT0=
EXTT1=
EXTT2=
EXTT3=
EXTT4=
EXTT5=
PLAYORDER=
